<?xml version="1.0" encoding="UTF-8"?>
<svg version="1.1" xmlns="http://www.w3.org/2000/svg" width="64" height="64">
<path d="M0 0 C0.99 0.66 1.98 1.32 3 2 C3 3.32 3 4.64 3 6 C2.34 6.33 1.68 6.66 1 7 C0.34786708 9.02463255 0.34786708 9.02463255 0 11 C2.31 11.33 4.62 11.66 7 12 C7.33 10.35 7.66 8.7 8 7 C11 9 11 9 11.8125 12.625 C12.23942573 17.10772018 11.30003866 20.71751971 10 25 C10.66 25 11.32 25 12 25 C12.33 23.35 12.66 21.7 13 20 C15.0625 21.375 15.0625 21.375 17 24 C17.99220293 33.23103082 13.14200637 42.28758599 9.4375 50.4375 C5.35143503 54.73310677 0.64145379 57.23576354 -5 59 C-8.97219595 59.09701428 -12.25080434 58.25339679 -16 57 C-17.31871094 56.62101562 -17.31871094 56.62101562 -18.6640625 56.234375 C-25.18615443 54.06691243 -29.33040242 50.82074099 -33 45 C-36.33995468 38.28044727 -37.48890186 32.45575339 -37 25 C-36.34 25 -35.68 25 -35 25 C-34.34 26.32 -33.68 27.64 -33 29 C-30.10968075 26.10968075 -30.13381259 22.92070895 -30 19 C-30.15607487 17.43404881 -30.34359289 15.87091014 -30.5625 14.3125 C-31.05572546 10.65124948 -30.94532268 8.27633294 -29 5 C-28.34 4.67 -27.68 4.34 -27 4 C-26.67 5.98 -26.34 7.96 -26 10 C-25.34 10 -24.68 10 -24 10 C-24.33 11.65 -24.66 13.3 -25 15 C-24.01 15.33 -23.02 15.66 -22 16 C-21.4121875 14.8553125 -21.4121875 14.8553125 -20.8125 13.6875 C-18.81617669 10.7274344 -17.18118419 9.54980768 -14 8 C-13.34 8 -12.68 8 -12 8 C-12 6.35 -12 4.7 -12 3 C-9.69 3.66 -7.38 4.32 -5 5 C-3.35 3.35 -1.7 1.7 0 0 Z " fill="#509DE6" transform="translate(41,5)"/>
<path d="M0 0 C0.66 0.33 1.32 0.66 2 1 C1.67 3.31 1.34 5.62 1 8 C4.27773504 7.24849977 4.27773504 7.24849977 6 4 C8 8 10 12 12 16 C12.66 16 13.32 16 14 16 C14.50146657 23.57771707 13.94998798 28.45783241 10 35 C9.34 35 8.68 35 8 35 C7.835 35.639375 7.67 36.27875 7.5 36.9375 C6 39 6 39 2.3125 39.875 C-3.16050272 40.22936708 -7.1128196 39.62635059 -11.40234375 35.9296875 C-18.9226894 28.54002716 -18.9226894 28.54002716 -19.09765625 25.0546875 C-19.06510417 23.03645833 -19.03255208 21.01822917 -19 19 C-17 19 -17 19 -15.375 20.5 C-14.92125 20.995 -14.4675 21.49 -14 22 C-12.96376182 18.70287851 -12.76711971 17.45517512 -14.375 14.3125 C-15.179375 13.1678125 -15.179375 13.1678125 -16 12 C-16.33 11.34 -16.66 10.68 -17 10 C-13.24480943 10.51207144 -10.33311475 11.2175082 -7 13 C-6.91363281 12.39671875 -6.82726563 11.7934375 -6.73828125 11.171875 C-5.57632933 4.5626072 -5.57632933 4.5626072 -2.375 1.4375 C-1.59125 0.963125 -0.8075 0.48875 0 0 Z " fill="#8FD3FF" transform="translate(34,19)"/>
<path d="M0 0 C0.33 0.99 0.66 1.98 1 3 C0.01 3.66 -0.98 4.32 -2 5 C-1.34 3.35 -0.68 1.7 0 0 Z " fill="#FFFFFF" transform="translate(26,1)"/>
<path d="M0 0 C1 4 1 4 1 4 Z " fill="#FFFFFF" transform="translate(54,20)"/>
<path d="" fill="#FFFFFF" transform="translate(0,0)"/>
<path d="" fill="#4D9BE6" transform="translate(0,0)"/>
<path d="" fill="#FFFFFF" transform="translate(0,0)"/>
<path d="" fill="#FFFFFF" transform="translate(0,0)"/>
<path d="" fill="#FFFFFF" transform="translate(0,0)"/>
<path d="" fill="#FFFFFF" transform="translate(0,0)"/>
<path d="" fill="#4D9BE6" transform="translate(0,0)"/>
</svg>
